# xmcd
#
# Track frame offsets:
# 150
# 12843
# 26608
# 42973
# 57594
# 76766
# 91442
# 110438
# 130974
# 149993
# 164441
# 184079
# 203696
# 223180
# 241341
# 259502
# 274393
# 283912
# 310000
# 327977
# 340911
#
# Disc length: 4721 seconds
#
#
# Revision: 0
# Processed by: cddbd v1.5.2PL0 Copyright (c) Steve Scherf et al.
# Submitted via: FreeRIP 2.951 
#
DISCID=41126f15
DTITLE=Jay Dee - Story CD 1
DYEAR=1900
DGENRE=Hip-Hop
TTITLE0=Now
TTITLE1=A Day With The Homiez
TTITLE2=Front Street
TTITLE3=Front Street Remix
TTITLE4=It Dont Get Any Liver Than This
TTITLE5=No PLace To Go
TTITLE6=Woo Ha(Bounce Remix)
TTITLE7=Stakes Is High Remix
TTITLE8=Brothas Juss Dont Know Remix
TTITLE9=Pack Da House
TTITLE10=Mardi Gras At Midnight
TTITLE11=Purple Remix
TTITLE12=Microphone Master Remix
TTITLE13=Got Til Its Gone
TTITLE14=Got Til Its Gone(Ummah Remix)
TTITLE15=Sittin On Chrome Remix
TTITLE16=That Shit
TTITLE17=I Try Remix
TTITLE18=Always Find A Way Remix
TTITLE19=Dont Stop
TTITLE20=Supa Shit
EXTD=
EXTT0=
EXTT1=
EXTT2=
EXTT3=
EXTT4=
EXTT5=
EXTT6=
EXTT7=
EXTT8=
EXTT9=
EXTT10=
EXTT11=
EXTT12=
EXTT13=
EXTT14=
EXTT15=
EXTT16=
EXTT17=
EXTT18=
EXTT19=
EXTT20=
PLAYORDER=
